<?xml version="1.0" encoding="utf-8"?>
<!-- Generator: Adobe Illustrator 24.1.3, SVG Export Plug-In . SVG Version: 6.00 Build 0)  -->
<svg version="1.1" xmlns="http://www.w3.org/2000/svg" xmlns:xlink="http://www.w3.org/1999/xlink" x="0px" y="0px"
	 viewBox="0 0 703 202.6" style="enable-background:new 0 0 703 202.6;" xml:space="preserve">
<style type="text/css">
	.st0{fill:#8F1B59;}
</style>
<g id="ISSN_x5F_LOGO">
	<g>
		<polygon class="st0" points="0,3.1 0,199.3 34,199.3 34,3.1 0,3.1 		"/>
		<g>
			<path class="st0" d="M106.7,0.1c-8.9,0-17.2,3.3-22.9,9.8c-5.7,6.2-8.5,14.5-8.5,24.8c0,9.1,2,17,6,23.5c2.1,3.5,5.5,8,10.2,13.5
				c4.7,5.5,10.9,12.2,18.4,19.9c13.8,14.5,23.2,27.1,28.2,37.7c5,10.3,7.5,22.8,7.5,37.7c0,12-2,22.7-5.9,32.2
				c6.7,2.7,11.9,3.3,18.1,3.3c9.2,0,18.5-3.2,23.7-9.5c5.2-6.4,7.8-15,7.8-25.9c0-9.5-2-18-6-25.5c-2.1-3.6-5-7.7-8.7-12.4
				c-3.7-4.7-8.3-9.9-13.9-15.6c-8.6-8.8-15.7-16.6-21.4-23.3c-5.7-6.8-9.9-12.7-12.6-17.7c-5.2-9.9-7.8-22.4-7.8-37.5
				c0-12,1.8-22.5,5.3-31.6C117.7,0.5,112.4,0.1,106.7,0.1z"/>
			<path class="st0" d="M182.8,0.1c-8.9,0-16.2,3.3-21.9,9.8c-5.7,6.2-8.5,14.5-8.5,24.8c0,9.1,2,17,6,23.5c2.1,3.5,5.5,8,10.2,13.5
				c4.7,5.5,10.9,12.2,18.4,19.9c3.2,3.4,6.2,6.7,9,9.9V3.1l0,0C191.3,1.1,186.9,0.1,182.8,0.1z"/>
			<path class="st0" d="M67.9,199.6c4.8,1.9,9.4,2.9,13.9,2.9c9.2,0,17.5-3.2,22.7-9.5c5.2-6.4,7.8-15,7.8-25.9c0-9.5-2-18-6-25.5
				c-2.1-3.6-5-7.7-8.7-12.4c-3.7-4.7-8.3-9.9-13.9-15.6c-6-6.2-11.3-11.8-15.9-17V199.6z"/>
			<g>
				<polygon class="st0" points="283.5,3.1 228.1,3.1 283.5,127.4 				"/>
				<polygon class="st0" points="228,75.6 228,199.3 282.5,199.3 				"/>
			</g>
		</g>
	</g>
</g>
<g id="ISSN_x5F_TEXT_1_">
	<g>
		<g>
			<path class="st0" d="M327.7,199.3v-0.9c2.5-0.2,2.8-0.4,2.8-3V183c0-2.6-0.3-2.8-2.8-3v-0.9h8.4v0.9c-2.5,0.2-2.8,0.4-2.8,3v12.3
				c0,2.6,0.3,2.8,2.8,3v0.9H327.7z"/>
		</g>
		<g>
			<path class="st0" d="M359.8,180c-1.7,0.1-2.5,0.5-2.6,1.9c-0.1,1-0.2,2.4-0.2,5.2v12.5H356l-13.2-16.1h-0.1v7.6
				c0,2.8,0.1,4.3,0.2,5.2c0.2,1.5,0.8,2,3,2.1v0.9h-7.4v-0.9c1.8-0.1,2.5-0.5,2.7-2c0.1-1,0.2-2.5,0.2-5.3v-6.8
				c0-2.2-0.1-2.4-0.7-3.2c-0.6-0.8-1.3-1-2.7-1.1v-0.9h4.8l12.8,15.2h0.1v-7.2c0-2.8-0.1-4.3-0.2-5.2c-0.2-1.4-0.9-1.8-3.1-1.9
				v-0.9h7.4V180z"/>
			<path class="st0" d="M378.3,184c-0.3-1.5-0.7-2.3-1.1-2.9c-0.5-0.7-1.1-0.9-3.3-0.9h-2v15.2c0,2.5,0.2,2.8,3.2,3v0.9h-9.1v-0.9
				c2.8-0.2,3-0.5,3-3v-15.2h-1.8c-2.6,0-3.2,0.3-3.6,1c-0.4,0.5-0.7,1.4-1,2.8h-1c0.1-1.9,0.3-4,0.4-5.7h0.7
				c0.4,0.7,0.8,0.8,1.7,0.8h12.3c0.8,0,1.1-0.2,1.6-0.8h0.7c0,1.4,0.2,3.8,0.3,5.6L378.3,184z"/>
			<path class="st0" d="M397.2,194.3c-0.2,1.1-0.8,4-1.1,4.9H381v-0.9c2.8-0.2,3.1-0.5,3.1-3v-12.3c0-2.8-0.3-2.9-2.6-3.1v-0.9h14
				c0,0.7,0.2,2.9,0.3,4.5l-1,0.2c-0.3-1.3-0.6-2-1-2.6c-0.5-0.7-1.3-0.9-3.4-0.9H388c-1,0-1.1,0.1-1.1,1v7h2.8c2.8,0,3-0.2,3.4-2.3
				h0.9v6h-0.9c-0.4-2.2-0.7-2.4-3.4-2.4h-2.8v5.7c0,1.5,0.2,2.2,0.7,2.5c0.6,0.4,1.7,0.4,3.2,0.4c2.2,0,3.1-0.3,3.8-1
				c0.6-0.7,1.1-1.7,1.6-3L397.2,194.3z"/>
			<path class="st0" d="M417.6,199.5c-0.3,0-0.7,0-1.1,0c-2.6-0.1-3.9-0.8-5.3-2.9c-1-1.5-2.1-3.4-3-4.9c-0.6-0.9-1.1-1.3-2.6-1.3
				h-0.9v4.9c0,2.6,0.3,2.8,2.7,3v0.9h-8.4v-0.9c2.5-0.2,2.8-0.4,2.8-3V183c0-2.6-0.3-2.8-2.7-3v-0.9h7.9c2.4,0,3.9,0.3,5.1,1.1
				c1.3,0.8,2.1,2.2,2.1,4.1c0,2.7-1.7,4.3-3.9,5.3c0.5,1,1.8,3.1,2.7,4.5c1.1,1.6,1.8,2.5,2.5,3.3c0.8,0.9,1.5,1.2,2.2,1.4
				L417.6,199.5z M406.1,189.4c1.5,0,2.5-0.2,3.3-0.9c1.1-0.9,1.6-2.2,1.6-3.8c0-3.4-2.1-4.6-4.4-4.6c-0.9,0-1.4,0.1-1.6,0.3
				c-0.2,0.2-0.3,0.5-0.3,1.3v7.6H406.1z"/>
			<path class="st0" d="M440,180c-1.7,0.1-2.5,0.5-2.6,1.9c-0.1,1-0.2,2.4-0.2,5.2v12.5h-1.1L423,183.4h-0.1v7.6
				c0,2.8,0.1,4.3,0.2,5.2c0.2,1.5,0.8,2,3,2.1v0.9h-7.4v-0.9c1.8-0.1,2.5-0.5,2.7-2c0.1-1,0.2-2.5,0.2-5.3v-6.8
				c0-2.2-0.1-2.4-0.7-3.2c-0.6-0.8-1.3-1-2.7-1.1v-0.9h4.8l12.8,15.2h0.1v-7.2c0-2.8-0.1-4.3-0.2-5.2c-0.2-1.4-0.9-1.8-3.1-1.9
				v-0.9h7.4V180z"/>
		</g>
		<g>
			<path class="st0" d="M452.8,199.3v-0.9c1.9-0.2,2.2-0.5,1.8-1.8c-0.4-1.2-1-2.8-1.6-4.6h-6.5c-0.5,1.3-0.9,2.6-1.3,3.9
				c-0.6,1.9-0.4,2.2,1.9,2.5v0.9h-6.8v-0.9c2-0.3,2.4-0.5,3.5-3.2l6.4-16.2l1.1-0.3c1.9,5.3,4,11.2,6,16.6c1,2.7,1.4,3,3.4,3.2v0.9
				H452.8z M449.9,183L449.9,183c-1.1,2.6-2,5.2-2.9,7.7h5.6L449.9,183z"/>
		</g>
		<g>
			<path class="st0" d="M476.9,184c-0.3-1.5-0.7-2.3-1.1-2.9c-0.5-0.7-1.1-0.9-3.3-0.9h-2v15.2c0,2.5,0.2,2.8,3.2,3v0.9h-9.1v-0.9
				c2.8-0.2,3-0.5,3-3v-15.2h-1.8c-2.6,0-3.2,0.3-3.6,1c-0.4,0.5-0.7,1.4-1,2.8h-1c0.1-1.9,0.3-4,0.4-5.7h0.7
				c0.4,0.7,0.8,0.8,1.7,0.8h12.3c0.8,0,1.1-0.2,1.6-0.8h0.7c0,1.4,0.2,3.8,0.3,5.6L476.9,184z"/>
			<path class="st0" d="M479.9,199.3v-0.9c2.5-0.2,2.8-0.4,2.8-3V183c0-2.6-0.3-2.8-2.8-3v-0.9h8.4v0.9c-2.5,0.2-2.8,0.4-2.8,3v12.3
				c0,2.6,0.3,2.8,2.8,3v0.9H479.9z"/>
			<path class="st0" d="M511.3,188.9c0,6.7-4.7,10.8-10.4,10.8c-5.7,0-10.2-4.4-10.2-10.4c0-5.5,3.9-10.7,10.5-10.7
				C506.6,178.6,511.3,182.7,511.3,188.9z M494.2,188.5c0,5.7,3,10,7.4,10c3.4,0,6.3-2.9,6.3-8.8c0-6.5-3.2-10-7.2-10
				C497.2,179.8,494.2,182.8,494.2,188.5z"/>
			<path class="st0" d="M534.9,180c-1.7,0.1-2.5,0.5-2.6,1.9c-0.1,1-0.2,2.4-0.2,5.2v12.5H531l-13.2-16.1h-0.1v7.6
				c0,2.8,0.1,4.3,0.2,5.2c0.2,1.5,0.8,2,3,2.1v0.9h-7.4v-0.9c1.8-0.1,2.5-0.5,2.7-2c0.1-1,0.2-2.5,0.2-5.3v-6.8
				c0-2.2-0.1-2.4-0.7-3.2c-0.6-0.8-1.3-1-2.7-1.1v-0.9h4.8l12.8,15.2h0.1v-7.2c0-2.8-0.1-4.3-0.2-5.2c-0.2-1.4-0.9-1.8-3.1-1.9
				v-0.9h7.4V180z"/>
		</g>
		<g>
			<path class="st0" d="M547.6,199.3v-0.9c1.9-0.2,2.2-0.5,1.8-1.8c-0.4-1.2-1-2.8-1.6-4.6h-6.5c-0.5,1.3-0.9,2.6-1.3,3.9
				c-0.6,1.9-0.4,2.2,1.9,2.5v0.9h-6.8v-0.9c2-0.3,2.4-0.5,3.5-3.2l6.4-16.2l1.1-0.3c1.9,5.3,4,11.2,6,16.6c1,2.7,1.4,3,3.4,3.2v0.9
				H547.6z M544.7,183L544.7,183c-1.1,2.6-2,5.2-2.9,7.7h5.6L544.7,183z"/>
		</g>
		<g>
			<path class="st0" d="M572.6,194.3c-0.2,1-0.8,4-1.1,4.9h-14.3v-0.9c2.6-0.2,2.9-0.4,2.9-3V183c0-2.6-0.2-2.8-2.7-3v-0.9h8.4v0.9
				c-2.4,0.2-2.7,0.3-2.7,3v12.2c0,1.6,0.2,2.2,0.7,2.5c0.6,0.3,1.6,0.4,2.9,0.4c1.6,0,2.7-0.2,3.4-1c0.6-0.6,1.1-1.6,1.6-3.1
				L572.6,194.3z"/>
		</g>
		<g>
			<path class="st0" d="M600.1,194.1c-0.4,1.4-1.2,3.8-1.8,4.8c-0.9,0.2-3.5,0.8-5.7,0.8c-7.8,0-11.2-5.4-11.2-10.3
				c0-6.5,5-10.8,12.1-10.8c2.5,0,4.7,0.7,5.5,0.8c0.2,1.7,0.5,3,0.6,4.8l-1,0.2c-0.8-3.4-2.8-4.6-6-4.6c-5.1,0-7.8,4.3-7.8,9
				c0,5.8,3.3,9.7,8,9.7c3.1,0,4.7-1.7,6.3-4.8L600.1,194.1z"/>
		</g>
		<g>
			<path class="st0" d="M617.9,194.3c-0.2,1.1-0.8,4-1.1,4.9h-15.2v-0.9c2.8-0.2,3.1-0.5,3.1-3v-12.3c0-2.8-0.3-2.9-2.6-3.1v-0.9h14
				c0,0.7,0.2,2.9,0.3,4.5l-1,0.2c-0.3-1.3-0.6-2-1-2.6c-0.5-0.7-1.3-0.9-3.4-0.9h-2.2c-1,0-1.1,0.1-1.1,1v7h2.8
				c2.8,0,3-0.2,3.4-2.3h0.9v6h-0.9c-0.4-2.2-0.7-2.4-3.4-2.4h-2.8v5.7c0,1.5,0.2,2.2,0.7,2.5c0.6,0.4,1.7,0.4,3.2,0.4
				c2.2,0,3.1-0.3,3.8-1c0.6-0.7,1.1-1.7,1.6-3L617.9,194.3z"/>
			<path class="st0" d="M641.1,180c-1.7,0.1-2.5,0.5-2.6,1.9c-0.1,1-0.2,2.4-0.2,5.2v12.5h-1.1l-13.2-16.1H624v7.6
				c0,2.8,0.1,4.3,0.2,5.2c0.2,1.5,0.8,2,3,2.1v0.9h-7.4v-0.9c1.8-0.1,2.5-0.5,2.7-2c0.1-1,0.2-2.5,0.2-5.3v-6.8
				c0-2.2-0.1-2.4-0.7-3.2c-0.6-0.8-1.3-1-2.7-1.1v-0.9h4.8l12.8,15.2h0.1v-7.2c0-2.8-0.1-4.3-0.2-5.2c-0.2-1.4-0.9-1.8-3.1-1.9
				v-0.9h7.4V180z"/>
			<path class="st0" d="M659.5,184c-0.3-1.5-0.7-2.3-1.1-2.9c-0.5-0.7-1.1-0.9-3.3-0.9h-2.1v15.2c0,2.5,0.3,2.8,3.2,3v0.9h-9.1v-0.9
				c2.8-0.2,3-0.5,3-3v-15.2h-1.8c-2.6,0-3.2,0.3-3.6,1c-0.4,0.5-0.7,1.4-1,2.8h-1c0.1-1.9,0.3-4,0.4-5.7h0.7
				c0.4,0.7,0.8,0.8,1.7,0.8h12.3c0.8,0,1.1-0.2,1.6-0.8h0.7c0,1.4,0.2,3.8,0.3,5.6L659.5,184z"/>
			<path class="st0" d="M681,199.5c-0.3,0-0.7,0-1.1,0c-2.6-0.1-3.9-0.8-5.3-2.9c-1-1.5-2.1-3.4-3-4.9c-0.6-0.9-1.1-1.3-2.6-1.3
				h-0.9v4.9c0,2.6,0.3,2.8,2.7,3v0.9h-8.4v-0.9c2.5-0.2,2.8-0.4,2.8-3V183c0-2.6-0.3-2.8-2.7-3v-0.9h7.9c2.4,0,3.9,0.3,5.1,1.1
				c1.3,0.8,2.1,2.2,2.1,4.1c0,2.7-1.7,4.3-3.9,5.3c0.5,1,1.8,3.1,2.7,4.5c1.1,1.6,1.8,2.5,2.5,3.3c0.8,0.9,1.5,1.2,2.2,1.4
				L681,199.5z M669.5,189.4c1.5,0,2.5-0.2,3.3-0.9c1.1-0.9,1.6-2.2,1.6-3.8c0-3.4-2.1-4.6-4.4-4.6c-0.9,0-1.4,0.1-1.6,0.3
				c-0.2,0.2-0.3,0.5-0.3,1.3v7.6H669.5z"/>
			<path class="st0" d="M698.1,194.3c-0.2,1.1-0.8,4-1.1,4.9h-15.2v-0.9c2.8-0.2,3.1-0.5,3.1-3v-12.3c0-2.8-0.3-2.9-2.6-3.1v-0.9h14
				c0,0.7,0.2,2.9,0.3,4.5l-1,0.2c-0.3-1.3-0.6-2-1-2.6c-0.5-0.7-1.3-0.9-3.4-0.9h-2.2c-1,0-1.1,0.1-1.1,1v7h2.8
				c2.8,0,3-0.2,3.4-2.3h0.9v6H694c-0.4-2.2-0.7-2.4-3.4-2.4h-2.8v5.7c0,1.5,0.2,2.2,0.7,2.5c0.6,0.4,1.7,0.4,3.2,0.4
				c2.2,0,3.1-0.3,3.8-1c0.6-0.7,1.1-1.7,1.6-3L698.1,194.3z"/>
		</g>
		<g>
			<path d="M327.7,23.3v-0.9c2.5-0.2,2.8-0.4,2.8-3V7c0-2.6-0.3-2.8-2.8-3V3.1h8.4V4c-2.5,0.2-2.8,0.4-2.8,3v12.3
				c0,2.6,0.3,2.8,2.8,3v0.9H327.7z"/>
		</g>
		<g>
			<path d="M360.5,4c-1.7,0.1-2.5,0.5-2.6,1.9c-0.1,1-0.2,2.4-0.2,5.2v12.5h-1.1L343.4,7.4h-0.1v7.6c0,2.8,0.1,4.3,0.2,5.2
				c0.2,1.5,0.8,2,3,2.1v0.9h-7.4v-0.9c1.8-0.1,2.5-0.5,2.7-2c0.1-1,0.2-2.5,0.2-5.3V8.3c0-2.2-0.1-2.4-0.7-3.2
				c-0.6-0.8-1.3-1-2.7-1.2V3.1h4.8l12.8,15.2h0.1v-7.2c0-2.8-0.1-4.3-0.2-5.2c-0.2-1.4-0.9-1.8-3.1-1.9V3.1h7.4V4z"/>
			<path d="M378.9,8c-0.3-1.5-0.7-2.3-1.1-2.9c-0.5-0.7-1.1-0.9-3.3-0.9h-2.1v15.2c0,2.5,0.2,2.8,3.2,3v0.9h-9.1v-0.9
				c2.8-0.2,3-0.5,3-3V4.2h-1.8c-2.6,0-3.2,0.3-3.6,1c-0.4,0.5-0.7,1.4-1,2.8h-1c0.1-1.9,0.3-4,0.4-5.7h0.7c0.4,0.7,0.8,0.8,1.7,0.8
				h12.3c0.8,0,1.1-0.2,1.6-0.8h0.7c0,1.4,0.2,3.8,0.3,5.6L378.9,8z"/>
			<path d="M397.8,18.3c-0.2,1.1-0.8,4-1.1,4.9h-15.2v-0.9c2.8-0.2,3.1-0.5,3.1-3V7.1c0-2.8-0.3-2.9-2.6-3.1V3.1h14
				c0,0.7,0.2,2.9,0.3,4.5l-1,0.2c-0.3-1.3-0.6-2-1-2.6c-0.5-0.7-1.3-0.9-3.4-0.9h-2.2c-1,0-1.1,0.1-1.1,1v7h2.8
				c2.8,0,3-0.3,3.4-2.3h0.9v6h-0.9c-0.4-2.2-0.7-2.4-3.4-2.4h-2.8v5.7c0,1.5,0.2,2.2,0.7,2.6c0.6,0.4,1.7,0.4,3.2,0.4
				c2.2,0,3.1-0.2,3.8-1c0.6-0.7,1.1-1.7,1.6-3L397.8,18.3z"/>
			<path d="M418.9,23.5c-0.3,0-0.7,0-1.1,0c-2.6-0.1-3.9-0.8-5.3-2.9c-1-1.5-2.1-3.4-3-4.9c-0.6-0.9-1.1-1.3-2.6-1.3H406v4.9
				c0,2.6,0.3,2.8,2.7,3v0.9h-8.4v-0.9c2.5-0.2,2.8-0.4,2.8-3V7c0-2.6-0.3-2.8-2.7-3V3.1h7.9c2.4,0,3.9,0.3,5.1,1.1
				c1.3,0.8,2.1,2.2,2.1,4.1c0,2.7-1.7,4.3-3.9,5.3c0.5,1,1.8,3.1,2.7,4.5c1.1,1.6,1.8,2.5,2.5,3.3c0.8,0.9,1.5,1.2,2.2,1.4
				L418.9,23.5z M407.4,13.4c1.5,0,2.5-0.2,3.3-0.9c1.1-0.9,1.6-2.2,1.6-3.8c0-3.4-2.1-4.6-4.4-4.6c-0.9,0-1.4,0.1-1.6,0.3
				C406.1,4.6,406,5,406,5.8v7.6H407.4z"/>
			<path d="M441.3,4c-1.7,0.1-2.5,0.5-2.6,1.9c-0.1,1-0.2,2.4-0.2,5.2v12.5h-1.1L424.2,7.4h-0.1v7.6c0,2.8,0.1,4.3,0.2,5.2
				c0.2,1.5,0.8,2,3,2.1v0.9H420v-0.9c1.8-0.1,2.5-0.5,2.7-2c0.1-1,0.2-2.5,0.2-5.3V8.3c0-2.2-0.1-2.4-0.7-3.2
				c-0.6-0.8-1.3-1-2.7-1.2V3.1h4.8l12.8,15.2h0.1v-7.2c0-2.8-0.1-4.3-0.2-5.2c-0.2-1.4-0.9-1.8-3.1-1.9V3.1h7.4V4z"/>
		</g>
		<g>
			<path d="M453,23.3v-0.9c1.9-0.2,2.2-0.5,1.8-1.8c-0.4-1.2-1-2.8-1.6-4.6h-6.5c-0.5,1.3-0.9,2.6-1.3,3.9c-0.6,1.9-0.4,2.2,1.9,2.5
				v0.9h-6.8v-0.9c2-0.3,2.4-0.5,3.5-3.2l6.4-16.2l1.1-0.3c1.9,5.3,4,11.2,6,16.6c1,2.7,1.4,3,3.4,3.2v0.9H453z M450.1,7L450.1,7
				c-1.1,2.6-2,5.2-2.9,7.7h5.6L450.1,7z"/>
		</g>
		<g>
			<path d="M476.8,8c-0.3-1.5-0.7-2.3-1.1-2.9c-0.5-0.7-1.1-0.9-3.3-0.9h-2.1v15.2c0,2.5,0.2,2.8,3.2,3v0.9h-9.1v-0.9
				c2.8-0.2,3-0.5,3-3V4.2h-1.8c-2.6,0-3.2,0.3-3.6,1c-0.4,0.5-0.7,1.4-1,2.8h-1c0.1-1.9,0.3-4,0.4-5.7h0.7c0.4,0.7,0.8,0.8,1.7,0.8
				h12.3c0.8,0,1.1-0.2,1.6-0.8h0.7c0,1.4,0.2,3.8,0.3,5.6L476.8,8z"/>
			<path d="M480,23.3v-0.9c2.5-0.2,2.8-0.4,2.8-3V7c0-2.6-0.3-2.8-2.8-3V3.1h8.4V4c-2.5,0.2-2.8,0.4-2.8,3v12.3c0,2.6,0.3,2.8,2.8,3
				v0.9H480z"/>
			<path d="M511.7,12.9c0,6.7-4.7,10.8-10.4,10.8c-5.7,0-10.2-4.4-10.2-10.4c0-5.5,3.9-10.7,10.5-10.7C507,2.6,511.7,6.7,511.7,12.9
				z M494.6,12.5c0,5.7,3,10,7.4,10c3.4,0,6.3-2.9,6.3-8.8c0-6.5-3.2-10-7.2-10C497.6,3.8,494.6,6.8,494.6,12.5z"/>
			<path d="M535.6,4c-1.7,0.1-2.5,0.5-2.6,1.9c-0.1,1-0.2,2.4-0.2,5.2v12.5h-1.1L518.6,7.4h-0.1v7.6c0,2.8,0.1,4.3,0.2,5.2
				c0.2,1.5,0.8,2,3,2.1v0.9h-7.4v-0.9c1.8-0.1,2.5-0.5,2.7-2c0.1-1,0.2-2.5,0.2-5.3V8.3c0-2.2-0.1-2.4-0.7-3.2
				c-0.6-0.8-1.3-1-2.7-1.2V3.1h4.8l12.8,15.2h0.1v-7.2c0-2.8-0.1-4.3-0.2-5.2c-0.2-1.4-0.9-1.8-3.1-1.9V3.1h7.4V4z"/>
		</g>
		<g>
			<path d="M548.3,23.3v-0.9c1.9-0.2,2.2-0.5,1.8-1.8c-0.4-1.2-1-2.8-1.6-4.6h-6.5c-0.5,1.3-0.9,2.6-1.3,3.9
				c-0.6,1.9-0.4,2.2,1.9,2.5v0.9h-6.8v-0.9c2-0.3,2.4-0.5,3.5-3.2l6.4-16.2l1.1-0.3c1.9,5.3,4,11.2,6,16.6c1,2.7,1.4,3,3.4,3.2v0.9
				H548.3z M545.3,7L545.3,7c-1.1,2.6-2,5.2-2.9,7.7h5.6L545.3,7z"/>
		</g>
		<g>
			<path d="M572.6,18.3c-0.2,1-0.8,4-1.1,4.9h-14.3v-0.9c2.6-0.2,2.9-0.4,2.9-3V7c0-2.6-0.2-2.8-2.7-3V3.1h8.4V4
				c-2.4,0.2-2.7,0.3-2.7,3v12.2c0,1.6,0.2,2.2,0.7,2.6c0.6,0.3,1.6,0.4,2.9,0.4c1.6,0,2.7-0.2,3.4-1c0.6-0.6,1.1-1.6,1.6-3.1
				L572.6,18.3z"/>
		</g>
		<g>
			<path d="M338.5,51.9c-0.6-2-1.5-4.2-4.1-4.2c-2.3,0-3.4,1.6-3.4,3.4c0,2.2,1.4,3.2,3.9,4.5c2.6,1.3,5.4,2.8,5.4,6.2
				c0,3.3-2.8,6-7,6c-1.2,0-2.3-0.2-3-0.5c-0.8-0.3-1.3-0.5-1.6-0.7c-0.3-0.7-0.7-3.3-0.8-4.9l1-0.3c0.5,1.9,2,5.1,5.1,5.1
				c2.3,0,3.6-1.4,3.6-3.6c0-2.2-1.6-3.3-4-4.6c-2.2-1.1-5.2-2.7-5.2-6.1c0-3,2.5-5.6,6.5-5.6c1.6,0,2.9,0.4,4,0.7
				c0.1,1.1,0.3,2.4,0.6,4.3L338.5,51.9z"/>
			<path d="M359.2,52c-0.3-1.5-0.7-2.3-1.1-2.9c-0.5-0.7-1.1-0.9-3.3-0.9h-2.1v15.2c0,2.5,0.2,2.8,3.2,3v0.9h-9.1v-0.9
				c2.8-0.2,3-0.5,3-3V48.2h-1.8c-2.6,0-3.2,0.3-3.6,1c-0.4,0.5-0.7,1.4-1,2.8h-1c0.1-1.9,0.3-4,0.4-5.7h0.7
				c0.4,0.7,0.8,0.8,1.7,0.8h12.3c0.8,0,1.1-0.2,1.6-0.8h0.7c0,1.4,0.2,3.8,0.3,5.6L359.2,52z"/>
		</g>
		<g>
			<path d="M371.5,67.3v-0.9c1.9-0.2,2.2-0.5,1.8-1.8c-0.4-1.2-1-2.8-1.6-4.6h-6.5c-0.5,1.3-0.9,2.6-1.3,3.9
				c-0.6,1.9-0.4,2.2,1.9,2.5v0.9h-6.8v-0.9c2-0.3,2.4-0.5,3.5-3.2l6.4-16.2l1.1-0.3c1.9,5.3,4,11.2,6,16.6c1,2.7,1.4,3,3.4,3.2v0.9
				H371.5z M368.5,51L368.5,51c-1.1,2.6-2,5.2-2.9,7.7h5.6L368.5,51z"/>
		</g>
		<g>
			<path d="M401.8,48c-1.7,0.1-2.5,0.5-2.6,1.9c-0.1,1-0.2,2.4-0.2,5.2v12.5h-1.1l-13.2-16.1h-0.1v7.6c0,2.8,0.1,4.3,0.2,5.2
				c0.2,1.5,0.8,2,3,2.1v0.9h-7.4v-0.9c1.8-0.1,2.5-0.5,2.7-2c0.1-1,0.2-2.5,0.2-5.3v-6.8c0-2.2-0.1-2.4-0.7-3.2
				c-0.6-0.8-1.3-1-2.7-1.1v-0.9h4.8l12.8,15.2h0.1v-7.2c0-2.8-0.1-4.3-0.2-5.2c-0.2-1.4-0.9-1.8-3.1-1.9v-0.9h7.4V48z"/>
			<path d="M413.4,47.1c3.9,0,6.9,0.8,8.8,2.7c1.5,1.5,2.6,3.7,2.6,6.6c0,3.7-1.5,6.5-3.8,8.3c-2.3,1.8-5.5,2.6-9.3,2.6h-7.5v-0.9
				c2.6-0.2,2.9-0.4,2.9-3V51c0-2.6-0.2-2.8-2.6-3v-0.9H413.4z M410.1,63.1c0,2.3,0.9,2.9,3.2,2.9c5.5,0,8.3-4.1,8.3-9.2
				c0-3.2-1.1-5.9-3.4-7.3c-1.4-1-3.1-1.4-5.2-1.4c-1.3,0-2,0.2-2.4,0.4c-0.3,0.2-0.4,0.6-0.4,1.8V63.1z"/>
		</g>
		<g>
			<path d="M439,67.3v-0.9c1.9-0.2,2.2-0.5,1.8-1.8c-0.4-1.2-1-2.8-1.6-4.6h-6.5c-0.5,1.3-0.9,2.6-1.3,3.9c-0.6,1.9-0.4,2.2,1.9,2.5
				v0.9h-6.8v-0.9c2-0.3,2.4-0.5,3.5-3.2l6.4-16.2l1.1-0.3c1.9,5.3,4,11.2,6,16.6c1,2.7,1.4,3,3.4,3.2v0.9H439z M436,51L436,51
				c-1.1,2.6-2,5.2-2.9,7.7h5.6L436,51z"/>
		</g>
		<g>
			<path d="M465.7,67.5c-0.3,0-0.7,0-1.1,0c-2.6-0.1-3.9-0.8-5.3-2.9c-1-1.5-2.1-3.4-3-4.9c-0.6-0.9-1.1-1.3-2.6-1.3h-0.9v4.9
				c0,2.6,0.3,2.8,2.7,3v0.9h-8.4v-0.9c2.5-0.2,2.8-0.4,2.8-3V51c0-2.6-0.3-2.8-2.7-3v-0.9h7.9c2.4,0,3.9,0.3,5.1,1.1
				c1.3,0.8,2.1,2.2,2.1,4.1c0,2.7-1.7,4.3-3.9,5.3c0.5,1,1.8,3.1,2.7,4.5c1.1,1.6,1.8,2.5,2.5,3.3c0.8,0.9,1.5,1.2,2.2,1.4
				L465.7,67.5z M454.2,57.4c1.5,0,2.5-0.2,3.3-0.9c1.1-0.9,1.6-2.2,1.6-3.8c0-3.4-2.1-4.6-4.4-4.6c-0.9,0-1.4,0.1-1.6,0.3
				c-0.2,0.2-0.3,0.5-0.3,1.3v7.6H454.2z"/>
			<path d="M476.5,47.1c3.9,0,6.9,0.8,8.8,2.7c1.5,1.5,2.6,3.7,2.6,6.6c0,3.7-1.5,6.5-3.8,8.3c-2.3,1.8-5.5,2.6-9.3,2.6h-7.5v-0.9
				c2.6-0.2,2.9-0.4,2.9-3V51c0-2.6-0.3-2.8-2.6-3v-0.9H476.5z M473.2,63.1c0,2.3,0.9,2.9,3.2,2.9c5.5,0,8.3-4.1,8.3-9.2
				c0-3.2-1.1-5.9-3.4-7.3c-1.4-1-3.1-1.4-5.2-1.4c-1.3,0-2,0.2-2.4,0.4c-0.3,0.2-0.4,0.6-0.4,1.8V63.1z"/>
		</g>
		<g>
			<path d="M338.5,95.9c-0.6-2-1.5-4.2-4.1-4.2c-2.3,0-3.4,1.7-3.4,3.4c0,2.2,1.4,3.2,3.9,4.5c2.6,1.3,5.4,2.8,5.4,6.2
				c0,3.3-2.8,6-7,6c-1.2,0-2.3-0.2-3-0.5c-0.8-0.3-1.3-0.5-1.6-0.7c-0.3-0.7-0.7-3.3-0.8-4.9l1-0.3c0.5,1.9,2,5.1,5.1,5.1
				c2.3,0,3.6-1.4,3.6-3.6c0-2.2-1.6-3.3-4-4.6c-2.2-1.2-5.2-2.7-5.2-6.2c0-3,2.5-5.6,6.5-5.6c1.6,0,2.9,0.4,4,0.7
				c0.1,1.1,0.3,2.4,0.6,4.3L338.5,95.9z"/>
			<path d="M359.4,106.3c-0.2,1.1-0.8,4-1.1,4.9h-15.2v-0.9c2.8-0.2,3.1-0.5,3.1-3V95.1c0-2.8-0.3-2.9-2.6-3.1v-0.9h14
				c0,0.7,0.2,2.9,0.3,4.5l-1,0.1c-0.3-1.3-0.6-2-1-2.6c-0.5-0.7-1.3-0.9-3.4-0.9h-2.2c-1,0-1.1,0.1-1.1,1v7h2.8
				c2.8,0,3-0.2,3.4-2.3h0.9v6h-0.9c-0.4-2.2-0.7-2.4-3.4-2.4h-2.8v5.7c0,1.5,0.2,2.2,0.7,2.5c0.6,0.4,1.7,0.4,3.2,0.4
				c2.2,0,3.1-0.2,3.8-1c0.6-0.7,1.1-1.7,1.6-3L359.4,106.3z"/>
			<path d="M380.6,111.5c-0.3,0-0.7,0-1.1,0c-2.6-0.1-3.9-0.8-5.3-2.9c-1-1.5-2.1-3.4-3-4.9c-0.6-0.9-1.1-1.3-2.6-1.3h-0.9v4.9
				c0,2.6,0.3,2.8,2.7,3v0.9h-8.4v-0.9c2.5-0.2,2.8-0.4,2.8-3V95c0-2.6-0.3-2.8-2.7-3v-0.9h7.9c2.4,0,3.9,0.3,5.1,1.1
				c1.3,0.8,2.1,2.2,2.1,4.1c0,2.7-1.7,4.3-3.9,5.3c0.5,1,1.8,3.1,2.7,4.5c1.1,1.6,1.8,2.5,2.5,3.3c0.8,0.9,1.5,1.2,2.2,1.4
				L380.6,111.5z M369.1,101.4c1.5,0,2.5-0.3,3.3-0.9c1.1-0.9,1.6-2.2,1.6-3.8c0-3.4-2.1-4.6-4.4-4.6c-0.9,0-1.4,0.1-1.6,0.3
				c-0.2,0.2-0.3,0.5-0.3,1.3v7.6H369.1z"/>
			<path d="M383.1,111.3v-0.9c2.5-0.2,2.8-0.4,2.8-3V95c0-2.6-0.3-2.8-2.8-3v-0.9h8.4V92c-2.5,0.2-2.8,0.4-2.8,3v12.3
				c0,2.6,0.3,2.8,2.8,3v0.9H383.1z"/>
		</g>
		<g>
			<path d="M405.3,111.3v-0.9c1.9-0.2,2.2-0.5,1.8-1.8c-0.4-1.2-1-2.8-1.6-4.6h-6.5c-0.5,1.3-0.9,2.6-1.3,3.9
				c-0.6,1.9-0.4,2.2,1.9,2.5v0.9h-6.8v-0.9c2-0.3,2.4-0.5,3.5-3.2l6.4-16.2l1.1-0.3c1.9,5.3,4,11.2,6,16.6c1,2.7,1.4,3,3.4,3.2v0.9
				H405.3z M402.3,95L402.3,95c-1.1,2.6-2,5.2-2.9,7.7h5.6L402.3,95z"/>
		</g>
		<g>
			<path d="M429.5,106.3c-0.2,1-0.8,4-1.1,4.9h-14.3v-0.9c2.6-0.2,2.9-0.4,2.9-3V95c0-2.6-0.2-2.8-2.7-3v-0.9h8.4V92
				c-2.4,0.2-2.7,0.3-2.7,3v12.2c0,1.6,0.2,2.2,0.7,2.5c0.6,0.3,1.6,0.4,2.9,0.4c1.6,0,2.7-0.2,3.4-1c0.6-0.6,1.1-1.6,1.6-3.1
				L429.5,106.3z"/>
		</g>
		<g>
			<path d="M348.9,136c-1.7,0.1-2.5,0.5-2.6,1.9c-0.1,1-0.2,2.4-0.2,5.2v12.5h-1.1l-13.2-16.1h-0.1v7.6c0,2.8,0.1,4.3,0.2,5.2
				c0.2,1.5,0.8,2,3,2.1v0.9h-7.4v-0.9c1.8-0.1,2.5-0.5,2.7-2c0.1-1,0.2-2.5,0.2-5.3v-6.8c0-2.2-0.1-2.4-0.7-3.2
				c-0.6-0.8-1.3-1-2.7-1.1v-0.9h4.8l12.8,15.2h0.1v-7.2c0-2.8-0.1-4.3-0.2-5.2c-0.2-1.4-0.9-1.8-3.1-1.9v-0.9h7.4V136z"/>
		</g>
		<g>
			<path d="M372,136c-1.8,0.2-2.5,0.6-2.7,1.8c-0.1,0.9-0.2,2.2-0.2,4.9v2.7c0,3.6-0.6,6.2-2.3,8.1c-1.4,1.5-3.5,2.2-5.6,2.2
				c-1.9,0-3.7-0.4-5.1-1.5c-1.8-1.4-2.7-3.7-2.7-7.4v-7.7c0-2.8-0.3-3-2.7-3.2v-0.9h8.3v0.9c-2.4,0.2-2.6,0.4-2.6,3.2v7
				c0,5,1.9,7.8,5.7,7.8c4.3,0,5.7-3.6,5.7-8.7v-2.5c0-2.7-0.1-4-0.2-5c-0.2-1.2-0.8-1.6-3-1.8v-0.9h7.5V136z"/>
			<path d="M391.1,155.3v-0.9c2.5-0.3,2.6-0.4,2.6-3.6l-0.1-12.5h-0.1l-7.5,16.9h-0.7l-6.8-16.4h-0.1l-0.4,8.7
				c-0.1,2.5-0.1,3.9-0.1,5.1c0.1,1.5,0.8,1.7,2.9,1.9v0.9h-7.3v-0.9c1.8-0.2,2.4-0.6,2.6-1.8c0.2-1.1,0.4-2.5,0.6-5.7l0.5-6.4
				c0.3-3.9,0.1-4.1-2.7-4.4v-0.9h5.3l6.9,15.2l7-15.2h5.5v0.9c-2.7,0.3-2.9,0.4-2.8,3.4l0.3,11.3c0.1,3.2,0.2,3.4,2.8,3.7v0.9
				H391.1z"/>
			<path d="M412.9,144.4c3.2,0.5,5.6,1.8,5.6,4.9c0,2.1-1.2,3.7-3,4.7c-1.6,0.9-3.7,1.3-6.2,1.3h-7.1v-0.9c2.6-0.2,2.8-0.4,2.8-3
				V139c0-2.6-0.1-2.8-2.6-3v-0.9h8.2c2.4,0,3.8,0.4,4.8,1.1c1.1,0.7,1.7,2.1,1.7,3.5C417.2,142.6,414.7,143.8,412.9,144.4
				L412.9,144.4z M409.3,144c3.4,0,4.8-1.3,4.8-3.9c0-2.2-1.3-3.9-4-3.9c-0.7,0-1.4,0.1-1.7,0.3c-0.3,0.2-0.4,0.6-0.4,1.5v6.1H409.3
				z M408,151.3c0,2.2,0.6,2.9,2.5,2.8c2.4,0,4.6-1.3,4.6-4.5c0-3.1-2.1-4.5-5.8-4.5H408V151.3z"/>
			<path d="M438.2,150.3c-0.2,1.1-0.8,4-1.1,4.9h-15.2v-0.9c2.8-0.2,3.1-0.5,3.1-3v-12.3c0-2.8-0.3-2.9-2.6-3.1v-0.9h14
				c0,0.7,0.2,2.9,0.3,4.5l-1,0.2c-0.3-1.3-0.6-2-1-2.6c-0.5-0.7-1.3-0.9-3.4-0.9H429c-1,0-1.1,0.1-1.1,1v7h2.8c2.8,0,3-0.2,3.4-2.3
				h0.9v6h-0.9c-0.4-2.2-0.7-2.4-3.4-2.4h-2.8v5.7c0,1.5,0.2,2.2,0.7,2.5c0.6,0.4,1.7,0.4,3.2,0.4c2.2,0,3.1-0.3,3.8-1
				c0.6-0.7,1.1-1.7,1.6-2.9L438.2,150.3z"/>
			<path d="M458.6,155.5c-0.3,0-0.7,0-1.1,0c-2.6-0.1-3.9-0.8-5.3-2.9c-1-1.5-2.1-3.4-3-4.9c-0.6-0.9-1.1-1.3-2.6-1.3h-0.9v4.9
				c0,2.6,0.3,2.8,2.7,3v0.9h-8.4v-0.9c2.5-0.2,2.8-0.4,2.8-3V139c0-2.6-0.3-2.8-2.7-3v-0.9h7.9c2.4,0,3.9,0.3,5.1,1.1
				c1.3,0.8,2.1,2.2,2.1,4.1c0,2.7-1.7,4.3-3.9,5.3c0.5,1,1.8,3.1,2.7,4.5c1.1,1.6,1.8,2.5,2.5,3.3c0.8,0.9,1.5,1.2,2.2,1.4
				L458.6,155.5z M447.1,145.4c1.5,0,2.5-0.2,3.3-0.9c1.1-0.9,1.6-2.2,1.6-3.8c0-3.4-2.1-4.6-4.4-4.6c-0.9,0-1.4,0.1-1.6,0.3
				c-0.2,0.2-0.3,0.5-0.3,1.3v7.6H447.1z"/>
		</g>
	</g>
</g>
</svg>
